<?xml version="1.0" encoding="iso-8859-1"?>
<!-- Generator: Adobe Illustrator 19.0.0, SVG Export Plug-In . SVG Version: 6.00 Build 0)  -->
<svg version="1.1" id="Capa_1" xmlns="http://www.w3.org/2000/svg" xmlns:xlink="http://www.w3.org/1999/xlink" x="0px" y="0px"
	 viewBox="0 0 512 512" style="enable-background:new 0 0 512 512;" xml:space="preserve">
<path style="fill:#F2F2F2;" d="M510.027,432.565c0-40.331-25.397-76.373-63.253-89.941L335.093,302.4l-0.043,0.043
	c-41.376,48.917-116.789,48.896-158.144-0.043L65.237,342.635c-37.877,13.557-63.275,49.6-63.275,89.941V512h508.064
	L510.027,432.565L510.027,432.565z"/>
<g>
	<path style="fill:#F8B64C;" d="M186.613,298.944c0.853,1.163,0.747,1.163-0.107,0H186.613z"/>
	<path style="fill:#F8B64C;" d="M325.611,298.944c-0.853,1.163-0.981,1.163-0.128,0H325.611z"/>
</g>
<rect id="SVGCleanerId_0" x="325.493" y="298.88" style="fill:#F8B64C;" width="0.128" height="0.011"/>
<g>
	<rect id="SVGCleanerId_0_1_" x="325.493" y="298.88" style="fill:#F8B64C;" width="0.128" height="0.011"/>
</g>
<g>
	<path style="fill:#F8B64C;" d="M186.507,164.8c1.557,17.877-7.104,33.227-19.371,34.315c-12.245,1.067-23.456-12.544-25.024-30.421
		c-1.568-17.877,7.104-33.227,19.349-34.293C173.739,133.323,184.949,146.944,186.507,164.8"/>
	<path style="fill:#F8B64C;" d="M370.027,168.693c-1.557,17.856-12.768,31.477-25.045,30.421
		c-12.245-1.088-20.917-16.437-19.349-34.293c1.557-17.899,12.768-31.499,25.024-30.443
		C362.923,135.467,371.595,150.816,370.027,168.693"/>
</g>
<path style="fill:#FFD15C;" d="M256.075,15.605c-56.939,0-103.083,46.165-103.083,103.083v30.955c0,7.893,0.48,15.787,1.483,23.605
	v0.043c4.875,40.043,22.123,77.557,49.355,107.339l9.749,10.709c8.981,9.856,21.685,15.456,34.997,15.456h14.933
	c13.312,0,26.016-5.6,34.997-15.435l9.813-10.731c27.232-29.771,44.48-67.339,49.397-107.371c0.981-7.851,1.44-15.712,1.44-23.605
	v-30.955C359.157,61.781,312.992,15.605,256.075,15.605z"/>
<path style="fill:#F8B64C;" d="M325.493,298.987v-0.107h0.128v-40.224H325.6c-5.227,7.691-10.955,15.061-17.269,21.984
	l-9.813,10.731c-8.981,9.835-21.664,15.435-34.997,15.435h-14.933c-13.312,0-26.016-5.621-34.997-15.456l-9.749-10.709
	c-6.315-6.891-12.021-14.251-17.227-21.941c-0.021,0-0.064-0.021-0.085-0.043v40.224l-9.6,3.52
	c41.355,48.939,116.768,48.96,158.144,0.043l0.043-0.043l-9.483-3.413L325.493,298.987L325.493,298.987z"/>
<g style="opacity:0.1;">
	<g>
		<path style="fill:#40596B;" d="M325.493,298.987v-0.107h0.128v-40.224c-0.021,0.021-0.085,0.064-0.107,0.085
			c-5.184,7.669-10.891,14.997-17.184,21.899l-9.813,10.731c-8.981,9.835-21.685,15.413-34.997,15.413h-14.933
			c-13.088,0-25.557-5.461-34.496-14.997h-0.064l47.392,47.061c27.349-1.44,54.251-13.461,73.643-36.395l0.021-0.021l0.021-0.021
			l-9.483-3.413h-0.128V298.987z"/>
	</g>
</g>
<path style="fill:#40596B;" d="M371.84,115.797h0.021C371.861,51.84,320.011,0,256.075,0c-63.957,0-115.797,51.84-115.797,115.797
	h0.021c-1.547,20.651-0.395,46.421,12.896,56.395c0,0,8.896-1.184,5.92-20.416c0,0-2.837-6.933,0.245-14.144
	c2.997-6.976,4.811-14.379,6.4-21.835h180.629c1.525,7.392,3.275,14.731,6.315,21.621c3.232,7.296,0.309,14.357,0.309,14.357
	c-2.955,19.232,5.941,20.416,5.941,20.416C372.235,162.219,373.387,136.448,371.84,115.797"/>
<path style="fill:#ACB3BA;" d="M160.619,316.171c23.776,28.128,58.517,44.245,95.349,44.267h0.043
	c36.629,0,71.232-15.979,94.997-43.829c1.877-2.101,3.253-4.48,4.171-6.976l-20.085-7.232l-0.043,0.043
	c-41.376,48.917-116.789,48.896-158.144-0.043l-20,7.211C157.739,311.925,158.944,314.176,160.619,316.171"/>
<g>
	<path style="fill:#40596B;" d="M508.843,417.76H3.136c1.397-8.96,4.064-17.504,7.893-25.6h489.92
		C504.8,400.256,507.467,408.8,508.843,417.76"/>
	<rect x="1.973" y="452.939" style="fill:#40596B;" width="508.064" height="25.6"/>
	<path style="fill:#40596B;" d="M284.597,357.067h188.416c-7.787-5.984-16.651-10.88-26.251-14.4l-31.019-11.211h-80
		C320.843,343.861,303.381,352.651,284.597,357.067"/>
	<path style="fill:#40596B;" d="M176.277,331.467H96.256l-31.04,11.211c-9.707,3.52-18.56,8.416-26.357,14.4h188.523
		C208.597,352.651,191.157,343.861,176.277,331.467"/>
	<path style="fill:#40596B;" d="M355.029,196.107l-30.603,43.349c-8.416,11.915-25.728,12.896-35.435,2.005l-0.043-0.043
		c-4.288-4.832-10.443-7.584-16.917-7.584h-31.915c-6.475,0-12.629,2.752-16.939,7.605c-9.685,10.891-26.997,9.941-35.435-1.984
		l-30.624-43.349c-4.629,121.333,98.976,125.088,98.976,125.088S359.701,317.44,355.029,196.107 M227.552,279.168
		c0-10.891,8.832-19.733,19.733-19.733h17.557c10.891,0,19.755,8.832,19.755,19.733H227.552z"/>
	<path style="fill:#40596B;" d="M256.075,141.419c-42.933-1.067-103.083-9.312-103.083-9.312
		c4.309,36.224,42.688,50.208,42.688,50.208c35.168,17.963,48.085,0,48.085,0c6.453-11.477,12.309-11.477,12.309-11.477
		s5.856,0,12.309,11.477c0,0,12.917,17.963,48.085,0c0,0,38.379-13.984,42.688-50.208
		C359.157,132.107,299.008,140.363,256.075,141.419 M234.219,163.147c-6.667,6.667-11.872,7.104-11.872,7.104
		c-22.517,2.379-26.955-16.587-26.955-16.587c8.288-3.872,25.792-1.504,25.792-1.504
		C239.84,155.733,234.219,163.147,234.219,163.147 M289.781,170.251c0,0-5.184-0.437-11.851-7.104c0,0-5.621-7.413,13.045-10.976
		c0,0,17.504-2.379,25.813,1.504C316.779,153.675,312.32,172.629,289.781,170.251"/>
</g>
<path style="fill:#334A5E;" d="M365.973,142.528c-72.288-17.003-147.52-17.003-219.787,0c-5.227,1.227-10.539-1.856-11.872-6.976
	c1.856-22.443,4.651-44.96,8.437-67.456c-1.109-5.184,3.019-10.475,9.227-11.648c68.789-12.939,139.392-12.939,208.192,0
	c6.229,1.163,10.357,6.443,9.248,11.648c3.776,22.496,6.581,45.024,8.437,67.456C376.512,140.693,371.2,143.755,365.973,142.528"/>
<g>
</g>
<g>
</g>
<g>
</g>
<g>
</g>
<g>
</g>
<g>
</g>
<g>
</g>
<g>
</g>
<g>
</g>
<g>
</g>
<g>
</g>
<g>
</g>
<g>
</g>
<g>
</g>
<g>
</g>
</svg>
